HIERARCHY
ROOT Hips
{
	OFFSET 0.00000 0.00000 0.00000
	CHANNELS 6 Xposition Yposition Zposition Zrotation Yrotation Xrotation 
	JOINT LHipJoint
	{
		OFFSET 0 0 0
		CHANNELS 3 Zrotation Yrotation Xrotation
		JOINT LeftUpLeg
		{
			OFFSET 1.44361 -1.63093 0.70831
			CHANNELS 3 Zrotation Yrotation Xrotation
			JOINT LeftLeg
			{
				OFFSET 2.20103 -6.04728 0.00000
				CHANNELS 3 Zrotation Yrotation Xrotation
				JOINT LeftFoot
				{
					OFFSET 2.54154 -6.98283 0.00000
					CHANNELS 3 Zrotation Yrotation Xrotation
					JOINT LeftToeBase
					{
						OFFSET 0.05971 -0.16406 1.77582
						CHANNELS 3 Zrotation Yrotation Xrotation
						End Site
						{
							OFFSET 0.00000 -0.00000 0.90832
						}
					}
				}
			}
		}
	}
	JOINT RHipJoint
	{
		OFFSET 0 0 0
		CHANNELS 3 Zrotation Yrotation Xrotation
		JOINT RightUpLeg
		{
			OFFSET -1.65838 -1.63093 0.70830
			CHANNELS 3 Zrotation Yrotation Xrotation
			JOINT RightLeg
			{
				OFFSET -2.26926 -6.23475 0.00000
				CHANNELS 3 Zrotation Yrotation Xrotation
				JOINT RightFoot
				{
					OFFSET -2.34808 -6.45129 0.00000
					CHANNELS 3 Zrotation Yrotation Xrotation
					JOINT RightToeBase
					{
						OFFSET -0.18633 -0.51195 1.68539
						CHANNELS 3 Zrotation Yrotation Xrotation
						End Site
						{
							OFFSET -0.00000 -0.00000 0.88927
						}
					}
				}
			}
		}
	}
	JOINT LowerBack
	{
		OFFSET 0 0 0
		CHANNELS 3 Zrotation Yrotation Xrotation
		JOINT Spine
		{
			OFFSET -0.10393 2.01691 0.06920
			CHANNELS 3 Zrotation Yrotation Xrotation
			JOINT Spine1
			{
				OFFSET 0.04092 2.01302 -0.05283
				CHANNELS 3 Zrotation Yrotation Xrotation
				JOINT Neck
				{
					OFFSET 0 0 0
					CHANNELS 3 Zrotation Yrotation Xrotation
					JOINT Neck1
					{
						OFFSET -0.02870 1.58978 -0.03113
						CHANNELS 3 Zrotation Yrotation Xrotation
						JOINT Head
						{
							OFFSET 0.11532 1.54326 -0.29195
							CHANNELS 3 Zrotation Yrotation Xrotation
							End Site
							{
								OFFSET 0.04056 1.59999 -0.09535
							}
						}
					}
				}
				JOINT LeftShoulder
				{
					OFFSET 0 0 0
					CHANNELS 3 Zrotation Yrotation Xrotation
					JOINT LeftArm
					{
						OFFSET 3.30641 1.15764 0.01104
						CHANNELS 3 Zrotation Yrotation Xrotation
						JOINT LeftForeArm
						{
							OFFSET 4.63208 -0.00000 0.00000
							CHANNELS 3 Zrotation Yrotation Xrotation
							JOINT LeftHand
							{
								OFFSET 3.41924 -0.00000 -0.00000
								CHANNELS 3 Zrotation Yrotation Xrotation
								JOINT LeftFingerBase
								{
									OFFSET 0 0 0
									CHANNELS 3 Zrotation Yrotation Xrotation
									JOINT LeftHandIndex1
									{
										OFFSET 0.62537 -0.00000 -0.00000
										CHANNELS 3 Zrotation Yrotation Xrotation
										End Site
										{
											OFFSET 0.50419 -0.00000 -0.00000
										}
									}
								}
								JOINT LThumb
								{
									OFFSET 0 0 0
									CHANNELS 3 Zrotation Yrotation Xrotation
									End Site
									{
										OFFSET 0.51189 -0.00000 0.51189
									}
								}
							}
						}
					}
				}
				JOINT RightShoulder
				{
					OFFSET 0 0 0
					CHANNELS 3 Zrotation Yrotation Xrotation
					JOINT RightArm
					{
						OFFSET -3.78081 1.02180 -0.16609
						CHANNELS 3 Zrotation Yrotation Xrotation
						JOINT RightForeArm
						{
							OFFSET -4.40640 -0.00000 -0.00000
							CHANNELS 3 Zrotation Yrotation Xrotation
							JOINT RightHand
							{
								OFFSET -3.44675 -0.00000 0.00000
								CHANNELS 3 Zrotation Yrotation Xrotation
								JOINT RightFingerBase
								{
									OFFSET 0 0 0
									CHANNELS 3 Zrotation Yrotation Xrotation
									JOINT RightHandIndex1
									{
										OFFSET -0.51367 -0.00000 -0.00000
										CHANNELS 3 Zrotation Yrotation Xrotation
										End Site
										{
											OFFSET -0.41414 -0.00000 -0.00000
										}
									}
								}
								JOINT RThumb
								{
									OFFSET 0 0 0
									CHANNELS 3 Zrotation Yrotation Xrotation
									End Site
									{
										OFFSET -0.42046 -0.00000 0.42046
									}
								}
							}
						}
					}
				}
			}
		}
	}
}
MOTION
Frames: 13
Frame Time: .0083333
11.404 15.6671 0.4103 0 0 0 0 0 0 -21 0 0 0 0 0 0 0 0 0 0 0 0 0 0 21 0 0 0 0 0 0 0 0 0 0 0 0 0 0 0 0 0 0 0 0 0 0 -16 0 0 21 0 0 11 0 0 0 -8 0 0 0 0 0 0 0 0 0 0 0 0 0 0 0 0 0 0 0 0 8 0 0 0 0 0 0 0 0 0 0 0 0 0 0 0 0 0
11.4040 15.6671 0.4103 -7.8329 -36.8433 -13.3326 0.0000 0.0000 0.0000 -3.3168 -18.0228 -76.9518 32.9434 15.3794 130.9120 0.3839 -4.6537 -11.0348 10.8226 -17.8472 -62.2042 0.0000 0.0000 0.0000 18.7297 13.7243 -68.8592 -30.1362 -17.3325 120.9679 -1.2621 -0.2164 -21.3263 -5.5021 13.9279 -42.9494 9.9064 -0.1147 18.6189 0.6765 0.7686 13.6978 -4.9563 0.9139 4.7623 -0.5820 -1.2234 -5.3614 -0.2976 -1.6000 -0.3587 -0.0305 -0.8077 0.7763 -0.0000 0.0000 0.0000 -87.7685 -15.7175 44.1895 13.1570 -21.5168 -2.5106 -0.0000 0.0000 -4.0599 23.9131 -32.9026 -13.5427 -7.1250 0.0000 -0.0000 -4.5673 -5.2089 4.9783 -0.0000 0.0000 0.0000 96.6456 9.8263 17.2331 -16.4332 26.1045 -3.8346 0.0000 -0.0000 -0.4784 -12.1182 -25.3378 5.2501 7.1250 -0.0000 -0.0000 18.6302 -54.8371 -4.6207
11.4066 15.6778 0.4136 -7.3835 -36.9082 -13.7809 0.0000 0.0000 0.0000 -3.9243 -17.9807 -76.4219 32.8983 15.4169 130.7421 0.4317 -4.8510 -11.7013 10.8418 -17.8568 -62.2666 0.0000 0.0000 0.0000 18.1442 13.6902 -68.8200 -30.2304 -17.2783 121.2844 -1.3246 1.3391 -21.3652 -4.5878 12.9040 -39.0100 9.0729 -0.0982 18.4611 0.8056 0.6314 13.9471 -4.3266 0.7901 5.0544 -0.7411 -1.0922 -5.5388 -0.3522 -1.4149 -0.5121 -0.0174 -0.7160 0.7590 0.0000 -0.0000 0.0000 -88.2556 -15.9431 43.2877 13.0776 -21.4009 -2.4815 -0.0000 0.0000 -3.5691 24.0160 -32.9323 -13.6165 -7.1250 0.0000 -0.0000 -4.5151 -5.2633 4.9250 0.0000 -0.0000 0.0000 96.1688 9.9863 18.0504 -16.3566 26.0018 -3.8010 0.0000 -0.0000 -0.4342 -12.2154 -24.8868 5.2055 7.1250 -0.0000 -0.0000 18.2828 -54.4264 -4.3444
11.4090 15.6899 0.4180 -6.8278 -36.9358 -14.2513 0.0000 0.0000 0.0000 -4.6300 -18.0175 -75.9384 32.8472 15.4593 130.5500 0.4796 -4.9741 -12.3306 10.7981 -17.8349 -62.1243 0.0000 0.0000 0.0000 17.4331 13.6247 -68.8566 -30.3300 -17.2201 121.6203 -1.3677 2.7452 -21.3808 -3.7446 11.8125 -35.0720 8.1966 -0.0710 18.2301 0.8665 0.5017 14.2048 -3.7487 0.6691 5.4015 -0.8515 -0.9675 -5.7673 -0.3488 -1.2413 -0.6537 0.0051 -0.6294 0.7538 0.0000 0.0000 0.0000 -88.5797 -16.2275 42.5406 13.0238 -21.3221 -2.4619 -0.0000 0.0000 -3.2880 24.0052 -32.9126 -13.6028 -7.1250 0.0000 -0.0000 -4.5178 -5.2405 4.9263 0.0000 0.0000 0.0000 95.8333 10.0524 18.8657 -16.4506 26.1279 -3.8423 0.0000 -0.0000 -0.4041 -12.5622 -24.7162 5.3230 7.1250 -0.0000 -0.0000 17.8469 -54.3286 -4.1925
11.4120 15.7014 0.4181 -6.2608 -36.9454 -14.7274 0.0000 0.0000 0.0000 -5.2995 -18.0780 -75.5100 32.7910 15.5054 130.3395 0.5264 -5.0885 -12.9183 10.7870 -17.8293 -62.0878 0.0000 0.0000 0.0000 16.7349 13.5717 -68.8987 -30.4261 -17.1632 121.9456 -1.3837 3.9262 -21.2977 -3.0359 10.7530 -31.4512 7.2630 -0.0604 18.0515 0.9382 0.3535 14.4563 -3.1274 0.5268 5.7179 -0.9579 -0.8220 -6.1179 -0.4344 -1.0366 -0.6990 -0.0002 -0.5289 0.7988 -0.0000 0.0000 0.0000 -88.8897 -16.5362 41.8318 12.9799 -21.2578 -2.4460 -0.0000 0.0000 -3.1027 24.0087 -32.7829 -13.5591 -7.1250 0.0000 -0.0000 -4.4941 -5.1086 4.8909 -0.0000 0.0000 0.0000 95.4931 10.0300 19.7462 -16.7219 26.4896 -3.9625 0.0000 -0.0000 -0.5815 -12.7671 -24.9481 5.4595 7.1250 -0.0000 -0.0000 17.7692 -54.5890 -4.2877
11.4159 15.7104 0.4141 -5.6032 -36.9160 -15.3378 0.0000 0.0000 0.0000 -6.0540 -18.1825 -75.0093 32.7289 15.5560 130.1077 0.6133 -5.3723 -13.9478 10.8494 -17.8606 -62.2915 0.0000 0.0000 0.0000 15.9854 13.4915 -68.9059 -30.5207 -17.1064 122.2667 -1.3744 4.9058 -21.0962 -2.4423 9.7322 -28.1138 5.7911 0.0537 17.8914 1.3594 0.2609 14.8148 -1.8388 0.3433 6.1386 -1.4085 -0.6780 -6.4496 -0.7528 -0.8083 -0.8978 -0.0184 -0.4193 0.7926 0.0000 -0.0000 0.0000 -89.8524 -16.9996 40.9662 12.8831 -21.1157 -2.4110 -0.0000 0.0000 -2.6257 24.2648 -32.8099 -13.7261 -7.1250 0.0000 -0.0000 -4.3560 -5.1961 4.7458 0.0000 -0.0000 0.0000 94.5143 10.4364 20.5522 -16.7895 26.5795 -3.9927 0.0000 -0.0000 -1.0457 -12.5038 -25.6699 5.4873 7.1250 -0.0000 -0.0000 18.4350 -55.2269 -4.7471
11.4225 15.7252 0.4073 -4.8932 -36.8004 -15.9693 0.0000 0.0000 0.0000 -6.8999 -18.4199 -74.4435 32.6481 15.6212 129.8069 0.7795 -5.9228 -15.7363 10.8933 -17.8825 -62.4345 0.0000 0.0000 0.0000 14.9104 13.3580 -69.2166 -30.6652 -17.0184 122.7592 -1.3253 6.4850 -20.5928 -1.4887 7.7083 -21.8314 3.0888 0.2931 17.3307 2.5631 0.1215 15.4732 0.9822 -0.0352 7.1100 -3.9706 -1.1205 -7.6252 0.3243 -1.1778 -0.8703 0.7312 -0.5877 1.0349 0.0000 -0.0000 0.0000 -92.2552 -18.0124 39.1192 12.6646 -20.7938 -2.3329 -0.0000 0.0000 -1.4565 24.4349 -33.1299 -13.9457 -7.1250 0.0000 -0.0000 -4.3163 -5.5644 4.7274 0.0000 -0.0000 0.0000 92.1204 11.5205 22.0643 -16.5652 26.2810 -3.8928 0.0000 -0.0000 -1.3664 -12.9759 -25.7015 5.7067 7.1250 -0.0000 -0.0000 17.9805 -55.3489 -4.6783
11.4254 15.7268 0.4090 -4.1887 -36.6781 -16.5808 0.0000 0.0000 0.0000 -7.7312 -18.7636 -73.9926 32.6036 15.6568 129.6417 0.8265 -5.7275 -16.2059 10.8541 -17.8629 -62.3069 0.0000 0.0000 0.0000 14.2617 13.0493 -69.0692 -30.7214 -16.9837 122.9514 -1.3385 6.8262 -20.6882 -1.5026 7.7425 -21.9347 3.9923 -0.1122 17.6064 1.1295 -0.2340 15.3997 -1.0216 -0.0421 6.8842 -1.6136 -0.2654 -6.7224 -0.5406 -0.2502 -1.4788 0.0946 -0.1345 0.6557 0.0000 -0.0000 0.0000 -90.0032 -17.6913 38.9759 12.8220 -21.0258 -2.3890 -0.0000 0.0000 -2.1041 24.1660 -33.2079 -13.8066 -7.1250 0.0000 -0.0000 -4.4787 -5.5806 4.9074 0.0000 -0.0000 0.0000 94.3127 11.2429 22.3497 -16.4266 26.0957 -3.8317 0.0000 -0.0000 -0.0821 -14.3176 -24.7643 6.1023 7.1250 -0.0000 -0.0000 16.1241 -54.7068 -3.9209
11.4279 15.7307 0.4122 -3.4419 -36.6475 -17.2723 0.0000 0.0000 0.0000 -8.6101 -18.9253 -73.4254 32.5496 15.6997 129.4420 0.7446 -5.5942 -15.3750 10.2938 -17.5718 -60.4657 0.0000 0.0000 0.0000 13.6224 12.8471 -68.8073 -30.7733 -16.9514 123.1291 -1.3505 7.2284 -20.7775 -1.4964 7.7271 -21.8883 3.9095 -0.1771 17.8324 0.5543 -0.3018 15.4349 -1.5843 -0.0501 6.8016 -1.3017 -0.2452 -6.7606 -0.2682 -0.2461 -1.3868 0.1266 -0.1302 0.6910 0.0000 -0.0000 0.0000 -89.2587 -17.5740 39.0108 12.8797 -21.1107 -2.4098 -0.0000 0.0000 -2.4218 24.1425 -33.2510 -13.8073 -7.1250 0.0000 -0.0000 -4.4991 -5.6192 4.9326 0.0000 -0.0000 0.0000 95.0041 11.0733 22.4804 -16.4424 26.1169 -3.8387 0.0000 0.0000 0.2150 -14.7991 -24.4063 6.2301 7.1250 -0.0000 -0.0000 15.4577 -54.4506 -3.6554
11.4294 15.7309 0.4138 -2.6212 -36.6233 -18.0312 0.0000 0.0000 0.0000 -9.5636 -19.0099 -72.8429 32.4985 15.7401 129.2534 0.7309 -5.5187 -15.2317 9.9920 -17.4054 -59.4617 0.0000 0.0000 0.0000 12.9145 12.6913 -68.6092 -30.8277 -16.9173 123.3159 -1.3550 7.4583 -20.8126 -1.5149 7.7727 -22.0258 3.2753 -0.0446 18.0841 0.3862 -0.1942 15.5083 -1.4222 -0.0450 6.7505 -1.2350 -0.2841 -6.8769 -0.3164 -0.2998 -1.2736 0.0994 -0.1586 0.7462 -0.0000 0.0000 0.0000 -89.2198 -17.5653 39.2007 12.8931 -21.1303 -2.4146 -0.0000 0.0000 -2.5464 24.3054 -33.1669 -13.8786 -7.1250 0.0000 -0.0000 -4.3944 -5.5715 4.8139 -0.0000 0.0000 0.0000 95.0141 11.0197 22.4592 -16.5138 26.2123 -3.8701 0.0000 0.0000 0.0706 -14.8139 -24.8067 6.3317 7.1250 -0.0000 -0.0000 15.6480 -54.8431 -3.8533
11.4312 15.7328 0.4192 -0.8744 -36.3321 -19.6492 0.0000 0.0000 0.0000 -11.7321 -19.5552 -71.4886 32.3928 15.8226 128.8648 0.8184 -4.9451 -16.1443 10.1591 -17.4984 -60.0188 0.0000 0.0000 0.0000 11.2843 12.0522 -68.2478 -30.9300 -16.8526 123.6679 -1.3458 7.9770 -20.7485 -1.5694 7.9048 -22.4253 1.2449 0.3764 19.0582 0.5803 0.1252 15.3645 -0.1162 -0.0834 6.0627 -1.6549 -0.3435 -6.7513 -0.5998 -0.3435 -1.0495 0.0810 -0.1844 0.7958 0.0000 -0.0000 0.0000 -90.1864 -17.0964 39.2263 12.8678 -21.0933 -2.4055 -0.0000 0.0000 -2.1515 24.4152 -33.1350 -13.9354 -7.1250 0.0000 -0.0000 -4.3281 -5.5650 4.7404 0.0000 -0.0000 0.0000 94.1078 10.4696 22.0582 -16.7365 26.5091 -3.9690 0.0000 -0.0000 -0.8829 -13.7287 -25.4126 5.9850 7.1250 -0.0000 -0.0000 17.0631 -55.2190 -4.3745
11.4323 15.7344 0.4177 -0.8804 -36.3729 -19.6665 0.0000 0.0000 0.0000 -11.7136 -19.5130 -71.4877 32.3842 15.8293 128.8333 0.8793 -4.7364 -16.7615 10.6084 -17.7381 -61.5033 0.0000 0.0000 0.0000 11.3229 12.1008 -68.1726 -30.9297 -16.8528 123.6669 -1.3409 8.0029 -20.7112 -1.5408 7.8358 -22.2165 -0.9461 1.0196 20.6829 2.4254 0.6770 14.3101 3.0041 -0.0589 4.0017 -3.8942 -0.8496 -6.6575 -0.6823 -0.8326 -0.0164 0.4165 -0.4415 1.1226 0.0000 -0.0000 0.0000 -93.4267 -15.4883 38.5322 12.7804 -20.9647 -2.3741 -0.0000 0.0000 -0.8018 24.4902 -33.4360 -14.0898 -7.1250 0.0000 -0.0000 -4.3388 -5.8912 4.7743 0.0000 -0.0000 0.0000 90.9960 8.6329 21.6927 -17.2413 27.1748 -4.1969 0.0000 -0.0000 -3.0867 -11.4327 -25.9672 5.0602 7.1250 -0.0000 -0.0000 19.6763 -55.3003 -5.1204
11.4330 15.7343 0.4162 -0.8761 -36.3543 -19.6933 0.0000 0.0000 0.0000 -11.7049 -19.5267 -71.4978 32.3775 15.8344 128.8089 0.9037 -4.7010 -17.0012 10.7665 -17.8189 -62.0211 0.0000 0.0000 0.0000 11.3196 12.0622 -68.1156 -30.9335 -16.8503 123.6803 -1.3423 8.1337 -20.7259 -1.4938 7.7208 -21.8691 -0.8880 0.9750 20.6509 2.3503 0.6264 14.3492 2.8992 -0.0782 4.0655 -4.0771 -0.9533 -6.6568 -0.3289 -0.9639 -0.0467 0.5538 -0.5004 1.1198 0.0000 0.0000 0.0000 -93.3207 -15.5192 38.4128 12.7961 -20.9877 -2.3798 -0.0000 0.0000 -0.8022 24.3088 -33.4914 -13.9961 -7.1250 0.0000 -0.0000 -4.4486 -5.9045 4.8967 0.0000 0.0000 0.0000 91.1420 8.6355 21.7743 -17.2624 27.2024 -4.2066 0.0000 -0.0000 -2.8728 -11.6303 -25.4009 5.0454 7.1250 -0.0000 -0.0000 19.1501 -54.8039 -4.7410
